<svg width="20" height="21" viewBox="0 0 20 21" fill="none" xmlns="http://www.w3.org/2000/svg">
<path d="M5.83917 10.5C5.83917 10.3342 5.90502 10.1753 6.02223 10.0581C6.13944 9.94085 6.29841 9.87501 6.46417 9.87501H9.37501V6.96417C9.37501 6.79841 9.44085 6.63944 9.55806 6.52223C9.67527 6.40502 9.83425 6.33917 10 6.33917C10.1658 6.33917 10.3247 6.40502 10.4419 6.52223C10.5592 6.63944 10.625 6.79841 10.625 6.96417V9.87501H13.5358C13.7016 9.87501 13.8606 9.94085 13.9778 10.0581C14.095 10.1753 14.1608 10.3342 14.1608 10.5C14.1608 10.6658 14.095 10.8247 13.9778 10.9419C13.8606 11.0592 13.7016 11.125 13.5358 11.125H10.625V14.0358C10.625 14.2016 10.5592 14.3606 10.4419 14.4778C10.3247 14.595 10.1658 14.6608 10 14.6608C9.83425 14.6608 9.67527 14.595 9.55806 14.4778C9.44085 14.3606 9.37501 14.2016 9.37501 14.0358V11.125H6.46417C6.29841 11.125 6.13944 11.0592 6.02223 10.9419C5.90502 10.8247 5.83917 10.6658 5.83917 10.5Z" fill="#D7303A"/>
<path fill-rule="evenodd" clip-rule="evenodd" d="M6.0975 3.64083C8.69122 3.35328 11.3088 3.35328 13.9025 3.64083C15.425 3.81083 16.6542 5.01 16.8325 6.54083C17.1408 9.17167 17.1408 11.8292 16.8325 14.46C16.6533 15.9908 15.4242 17.1892 13.9025 17.36C11.3088 17.6475 8.69122 17.6475 6.0975 17.36C4.575 17.1892 3.34583 15.9908 3.1675 14.46C2.86055 11.8292 2.86055 9.17163 3.1675 6.54083C3.34583 5.01 4.57583 3.81083 6.0975 3.64083ZM13.7642 4.8825C11.2624 4.60519 8.73762 4.60519 6.23583 4.8825C5.7727 4.93388 5.34042 5.13989 5.00882 5.46726C4.67721 5.79463 4.46566 6.22423 4.40833 6.68667C4.11194 9.22081 4.11194 11.7809 4.40833 14.315C4.46583 14.7773 4.67746 15.2067 5.00905 15.5339C5.34064 15.8611 5.77283 16.067 6.23583 16.1183C8.71667 16.395 11.2833 16.395 13.7642 16.1183C14.227 16.0668 14.659 15.8608 14.9904 15.5337C15.3219 15.2065 15.5334 14.7772 15.5908 14.315C15.8872 11.7809 15.8872 9.22081 15.5908 6.68667C15.5332 6.22466 15.3216 5.79554 14.9902 5.46852C14.6588 5.1415 14.2269 4.93565 13.7642 4.88417" fill="#D7303A"/>
</svg>
