<svg width="25" height="24" viewBox="0 0 25 24" fill="none" xmlns="http://www.w3.org/2000/svg">
<path d="M12.52 20C11.4107 20 10.371 19.7913 9.401 19.374C8.431 18.9567 7.58366 18.3853 6.859 17.66C6.13433 16.9347 5.563 16.0873 5.145 15.118C4.727 14.1487 4.51866 13.1093 4.52 12C4.52133 10.8907 4.73 9.85133 5.146 8.882C5.562 7.91267 6.13333 7.06533 6.86 6.34C7.58666 5.61467 8.43333 5.04333 9.39999 4.626C10.3667 4.20867 11.4063 4 12.519 4C13.6677 4 14.7617 4.23733 15.801 4.712C16.8403 5.186 17.7463 5.84733 18.519 6.696V4.308H19.519V8.462H15.366V7.462H17.846C17.15 6.69533 16.3467 6.09333 15.436 5.656C14.5267 5.21867 13.5547 5 12.52 5C10.5693 5 8.915 5.67933 7.557 7.038C6.199 8.39667 5.51966 10.0507 5.519 12C5.51833 13.9493 6.19766 15.6037 7.557 16.963C8.91633 18.3223 10.5703 19.0013 12.519 19C14.269 19 15.792 18.43 17.088 17.29C18.384 16.15 19.1673 14.72 19.438 13H20.45C20.2127 15.014 19.3393 16.684 17.83 18.01C16.3207 19.3367 14.5507 20 12.52 20ZM15.666 15.854L12.019 12.208V7H13.019V11.792L16.373 15.146L15.666 15.854Z" fill="#0C0E0B"/>
</svg>
