<svg width="18" height="19" viewBox="0 0 18 19" fill="none" xmlns="http://www.w3.org/2000/svg">
<path d="M5.25 3.5C5.25 3.10218 5.40804 2.72064 5.68934 2.43934C5.97064 2.15804 6.35218 2 6.75 2H11.25C11.6478 2 12.0294 2.15804 12.3107 2.43934C12.592 2.72064 12.75 3.10218 12.75 3.5V5H15.75C15.9489 5 16.1397 5.07902 16.2803 5.21967C16.421 5.36032 16.5 5.55109 16.5 5.75C16.5 5.94891 16.421 6.13968 16.2803 6.28033C16.1397 6.42098 15.9489 6.5 15.75 6.5H14.9482L14.298 15.6065C14.2711 15.9849 14.1017 16.3391 13.8241 16.5977C13.5465 16.8563 13.1811 17 12.8018 17H5.1975C4.8181 17 4.4528 16.8563 4.17516 16.5977C3.89753 16.3391 3.72819 15.9849 3.70125 15.6065L3.0525 6.5H2.25C2.05109 6.5 1.86032 6.42098 1.71967 6.28033C1.57902 6.13968 1.5 5.94891 1.5 5.75C1.5 5.55109 1.57902 5.36032 1.71967 5.21967C1.86032 5.07902 2.05109 5 2.25 5H5.25V3.5ZM6.75 5H11.25V3.5H6.75V5ZM4.5555 6.5L5.19825 15.5H12.8025L13.4453 6.5H4.5555ZM7.5 8C7.69891 8 7.88968 8.07902 8.03033 8.21967C8.17098 8.36032 8.25 8.55109 8.25 8.75V13.25C8.25 13.4489 8.17098 13.6397 8.03033 13.7803C7.88968 13.921 7.69891 14 7.5 14C7.30109 14 7.11032 13.921 6.96967 13.7803C6.82902 13.6397 6.75 13.4489 6.75 13.25V8.75C6.75 8.55109 6.82902 8.36032 6.96967 8.21967C7.11032 8.07902 7.30109 8 7.5 8ZM10.5 8C10.6989 8 10.8897 8.07902 11.0303 8.21967C11.171 8.36032 11.25 8.55109 11.25 8.75V13.25C11.25 13.4489 11.171 13.6397 11.0303 13.7803C10.8897 13.921 10.6989 14 10.5 14C10.3011 14 10.1103 13.921 9.96967 13.7803C9.82902 13.6397 9.75 13.4489 9.75 13.25V8.75C9.75 8.55109 9.82902 8.36032 9.96967 8.21967C10.1103 8.07902 10.3011 8 10.5 8Z" fill="white"/>
</svg>
