<svg width="14" height="15" viewBox="0 0 14 15" fill="none" xmlns="http://www.w3.org/2000/svg">
<path d="M7.00004 5.75C6.53591 5.75 6.09079 5.93437 5.7626 6.26256C5.43441 6.59075 5.25004 7.03587 5.25004 7.5C5.25004 7.96413 5.43441 8.40925 5.7626 8.73744C6.09079 9.06563 6.53591 9.25 7.00004 9.25C7.46417 9.25 7.90929 9.06563 8.23748 8.73744C8.56567 8.40925 8.75004 7.96413 8.75004 7.5C8.75004 7.03587 8.56567 6.59075 8.23748 6.26256C7.90929 5.93437 7.46417 5.75 7.00004 5.75ZM7.00004 10.4167C6.22649 10.4167 5.48463 10.1094 4.93765 9.56239C4.39066 9.01541 4.08337 8.27355 4.08337 7.5C4.08337 6.72645 4.39066 5.98459 4.93765 5.43761C5.48463 4.89062 6.22649 4.58333 7.00004 4.58333C7.77359 4.58333 8.51545 4.89062 9.06244 5.43761C9.60942 5.98459 9.91671 6.72645 9.91671 7.5C9.91671 8.27355 9.60942 9.01541 9.06244 9.56239C8.51545 10.1094 7.77359 10.4167 7.00004 10.4167ZM7.00004 3.125C4.08337 3.125 1.59254 4.93917 0.583374 7.5C1.59254 10.0608 4.08337 11.875 7.00004 11.875C9.91671 11.875 12.4075 10.0608 13.4167 7.5C12.4075 4.93917 9.91671 3.125 7.00004 3.125Z" fill="black"/>
</svg>
