<svg width="16" height="17" viewBox="0 0 16 17" fill="none" xmlns="http://www.w3.org/2000/svg">
<path d="M6.66708 13.4952C6.66702 13.6191 6.70148 13.7405 6.7666 13.8459C6.83172 13.9513 6.92492 14.0365 7.03574 14.0918L8.36908 14.7585C8.47074 14.8093 8.58371 14.8333 8.69724 14.8281C8.81077 14.823 8.92111 14.7889 9.01776 14.7291C9.11442 14.6693 9.19419 14.5858 9.24949 14.4866C9.30479 14.3873 9.3338 14.2755 9.33374 14.1618V9.49517C9.33389 9.16476 9.45672 8.84617 9.67841 8.60117L14.4937 3.27517C14.5801 3.17954 14.6368 3.06096 14.6571 2.93376C14.6775 2.80656 14.6605 2.67619 14.6083 2.55842C14.5562 2.44065 14.471 2.34052 14.3631 2.27014C14.2552 2.19976 14.1292 2.16214 14.0004 2.16183H2.00041C1.87148 2.16188 1.74533 2.19931 1.63724 2.26959C1.52915 2.33987 1.44376 2.43999 1.39141 2.55781C1.33906 2.67563 1.322 2.80611 1.34229 2.93343C1.36259 3.06075 1.41936 3.17946 1.50574 3.27517L6.32241 8.60117C6.5441 8.84617 6.66693 9.16476 6.66708 9.49517V13.4952Z" stroke="#D7303A" stroke-width="1.33333" stroke-linecap="round" stroke-linejoin="round"/>
</svg>
