<svg width="24" height="24" viewBox="0 0 24 24" fill="none" xmlns="http://www.w3.org/2000/svg">
<path d="M13.5 20C13.5 20 14.5 20 15.5 22C15.5 22 18.677 17 21.5 16M6.99997 16H11M6.99997 11H15M6.49997 3.5C4.94397 3.547 4.01697 3.72 3.37497 4.362C2.49597 5.242 2.49597 6.657 2.49597 9.488V15.994C2.49597 18.826 2.49597 20.241 3.37497 21.121C4.25297 22 5.66797 22 8.49597 22H10.996M15.492 3.5C17.048 3.547 17.976 3.72 18.617 4.362C19.497 5.242 19.497 6.657 19.497 9.488V13.5" stroke="black" stroke-width="1.5" stroke-linecap="round" stroke-linejoin="round"/>
<path d="M6.49597 3.75C6.49597 2.784 7.27997 2 8.24597 2H13.746C14.2101 2 14.6552 2.18437 14.9834 2.51256C15.3116 2.84075 15.496 3.28587 15.496 3.75C15.496 4.21413 15.3116 4.65925 14.9834 4.98744C14.6552 5.31563 14.2101 5.5 13.746 5.5H8.24597C7.78184 5.5 7.33672 5.31563 7.00853 4.98744C6.68035 4.65925 6.49597 4.21413 6.49597 3.75Z" stroke="black" stroke-width="1.5" stroke-linecap="round" stroke-linejoin="round"/>
</svg>
