<svg width="26" height="26" viewBox="0 0 26 26" fill="none" xmlns="http://www.w3.org/2000/svg">
<path fill-rule="evenodd" clip-rule="evenodd" d="M1.22199 0.817143C1.74392 0.294571 2.452 0.000650193 3.19056 0L13.5664 0C14.305 0.000650193 15.0131 0.294571 15.535 0.817143L21.8753 7.15743C22.3979 7.67935 22.6918 8.38743 22.6924 9.126V23.2143C22.6924 23.9531 22.3989 24.6617 21.8765 25.1841C21.3541 25.7065 20.6455 26 19.9067 26H3.19242C2.4536 26 1.74505 25.7065 1.22262 25.1841C0.700202 24.6617 0.406708 23.9531 0.406708 23.2143V2.78571C0.406708 2.04657 0.698279 1.33714 1.22199 0.817143ZM9.89856 8.40729C10.0477 8.51352 10.1744 8.64812 10.2715 8.80338C10.3685 8.95864 10.434 9.13151 10.4642 9.31211C10.4944 9.49271 10.4887 9.67749 10.4474 9.85588C10.4061 10.0343 10.33 10.2028 10.2236 10.3517L7.62914 13.9843C7.51149 14.1486 7.35948 14.2854 7.18366 14.3852C7.00784 14.4849 6.81243 14.5451 6.61098 14.5617C6.40954 14.5783 6.20689 14.5509 6.01711 14.4813C5.82734 14.4118 5.65497 14.3017 5.51199 14.1589L3.95571 12.6026C3.70967 12.3385 3.57573 11.9893 3.5821 11.6285C3.58846 11.2676 3.73464 10.9233 3.98984 10.6681C4.24503 10.4129 4.58932 10.2668 4.95017 10.2604C5.31101 10.254 5.66024 10.388 5.92428 10.634L6.31799 11.0259L7.95599 8.73414C8.17052 8.43348 8.49569 8.23034 8.85998 8.16939C9.22427 8.10844 9.59785 8.19282 9.89856 8.40729ZM11.6629 11.8374C11.6629 11.468 11.8096 11.1137 12.0708 10.8525C12.332 10.5913 12.6863 10.4446 13.0557 10.4446H17.6986C18.068 10.4446 18.4223 10.5913 18.6835 10.8525C18.9447 11.1137 19.0914 11.468 19.0914 11.8374C19.0914 12.2068 18.9447 12.5611 18.6835 12.8223C18.4223 13.0835 18.068 13.2303 17.6986 13.2303H13.0557C12.6863 13.2303 12.332 13.0835 12.0708 12.8223C11.8096 12.5611 11.6629 12.2068 11.6629 11.8374ZM11.6629 19.2084C11.6629 18.839 11.8096 18.4847 12.0708 18.2235C12.332 17.9623 12.6863 17.8156 13.0557 17.8156H17.6986C18.068 17.8156 18.4223 17.9623 18.6835 18.2235C18.9447 18.4847 19.0914 18.839 19.0914 19.2084C19.0914 19.5778 18.9447 19.9321 18.6835 20.1933C18.4223 20.4545 18.068 20.6013 17.6986 20.6013H13.0557C12.6863 20.6013 12.332 20.4545 12.0708 20.1933C11.8096 19.9321 11.6629 19.5778 11.6629 19.2084ZM10.2236 17.8379C10.335 17.6894 10.4156 17.5201 10.4607 17.34C10.5058 17.16 10.5144 16.9727 10.4861 16.7892C10.4577 16.6058 10.393 16.4298 10.2957 16.2717C10.1984 16.1136 10.0705 15.9766 9.91947 15.8686C9.76844 15.7607 9.59736 15.684 9.41628 15.6431C9.2352 15.6023 9.04778 15.598 8.86502 15.6306C8.68227 15.6632 8.50787 15.732 8.35208 15.8329C8.19629 15.9339 8.06226 16.0649 7.95785 16.2184L6.31799 18.512L5.92428 18.1183C5.66024 17.8722 5.31101 17.7383 4.95017 17.7447C4.58932 17.751 4.24503 17.8972 3.98984 18.1524C3.73464 18.4076 3.58846 18.7519 3.5821 19.1127C3.57573 19.4736 3.70967 19.8228 3.95571 20.0869L5.51199 21.6431C5.65497 21.786 5.82734 21.8961 6.01711 21.9656C6.20689 22.0352 6.40954 22.0626 6.61098 22.046C6.81243 22.0294 7.00784 21.9692 7.18366 21.8694C7.35948 21.7697 7.51149 21.6329 7.62914 21.4686L10.2236 17.8379Z" fill="white"/>
</svg>
