<svg width="49" height="50" viewBox="0 0 49 50" fill="none" xmlns="http://www.w3.org/2000/svg">
<path d="M32.6667 43.375C31.5437 43.375 30.5828 42.9755 29.7838 42.1765C28.9848 41.3776 28.5847 40.4159 28.5833 39.2917V31.125C28.5833 30.0021 28.9835 29.0411 29.7838 28.2422C30.5842 27.4432 31.5451 27.043 32.6667 27.0417H40.8333C41.9562 27.0417 42.9179 27.4418 43.7182 28.2422C44.5185 29.0425 44.918 30.0034 44.9167 31.125V39.2917C44.9167 40.4146 44.5172 41.3762 43.7182 42.1765C42.9192 42.9769 41.9576 43.3764 40.8333 43.375H32.6667ZM32.6667 39.2917H40.8333V31.125H32.6667V39.2917ZM6.12499 37.25C5.54651 37.25 5.06196 37.054 4.67132 36.662C4.28068 36.27 4.08468 35.7854 4.08332 35.2083C4.08196 34.6312 4.27796 34.1467 4.67132 33.7547C5.06468 33.3627 5.54924 33.1667 6.12499 33.1667H20.4167C20.9951 33.1667 21.4804 33.3627 21.8724 33.7547C22.2644 34.1467 22.4597 34.6312 22.4583 35.2083C22.457 35.7854 22.261 36.2707 21.8703 36.664C21.4797 37.0574 20.9951 37.2527 20.4167 37.25H6.12499ZM32.6667 22.9583C31.5437 22.9583 30.5828 22.5588 29.7838 21.7599C28.9848 20.9609 28.5847 19.9993 28.5833 18.875V10.7083C28.5833 9.58542 28.9835 8.62447 29.7838 7.8255C30.5842 7.02653 31.5451 6.62636 32.6667 6.625H40.8333C41.9562 6.625 42.9179 7.02517 43.7182 7.8255C44.5185 8.62583 44.918 9.58678 44.9167 10.7083V18.875C44.9167 19.9979 44.5172 20.9595 43.7182 21.7599C42.9192 22.5602 41.9576 22.9597 40.8333 22.9583H32.6667ZM32.6667 18.875H40.8333V10.7083H32.6667V18.875ZM6.12499 16.8333C5.54651 16.8333 5.06196 16.6373 4.67132 16.2453C4.28068 15.8533 4.08468 15.3688 4.08332 14.7917C4.08196 14.2146 4.27796 13.73 4.67132 13.338C5.06468 12.946 5.54924 12.75 6.12499 12.75H20.4167C20.9951 12.75 21.4804 12.946 21.8724 13.338C22.2644 13.73 22.4597 14.2146 22.4583 14.7917C22.457 15.3688 22.261 15.854 21.8703 16.2474C21.4797 16.6407 20.9951 16.8361 20.4167 16.8333H6.12499Z" fill="#0C0E0B"/>
</svg>
