<svg width="45" height="36" viewBox="0 0 45 36" fill="none" xmlns="http://www.w3.org/2000/svg">
<path d="M44.6203 26.9184C44.3003 26.5639 43.9046 26.388 43.4274 26.388C41.6424 26.3937 39.8573 26.3823 38.0695 26.4022C36.8542 26.4164 36.2732 25.1174 36.8121 24.1701C37.8421 22.3606 38.8638 20.5425 39.8826 18.7274C40.5534 17.5305 40.5843 16.291 39.9303 15.0998C38.5915 12.6578 37.2022 10.2442 35.8269 7.82208C34.6453 5.73745 33.4497 3.65849 32.2737 1.56819C31.9425 0.981093 31.5271 0.496101 30.9012 0.223823C29.6579 -0.317896 28.2882 0.14441 27.5697 1.38668C26.8624 2.60626 26.1888 3.84569 25.4984 5.07661C24.6844 6.52309 23.8677 7.96672 23.0538 9.4132C21.8581 7.74833 17.9765 2.31696 17.3253 1.22217C16.3851 -0.357607 14.0191 -0.383127 13.0171 1.15694C12.641 1.73553 12.3154 2.34816 11.9758 2.94944C10.8026 5.01705 9.63221 7.08749 8.46744 9.16078C7.27741 11.2738 6.09299 13.3896 4.90857 15.5054C3.65118 17.7489 2.3966 19.9952 1.1392 22.2386C0.810822 22.8257 0.445954 23.3958 0.159673 24.0027C-0.334302 25.0578 0.372981 26.181 1.52372 26.1952C2.84005 26.2122 4.15919 26.2263 5.47552 26.2037C5.94424 26.1951 6.42979 26.1356 6.87325 25.9938C7.82471 25.6903 8.4899 25.0096 8.97545 24.1446C10.0308 22.2641 11.0861 20.3809 12.1442 18.5005C12.728 17.4652 13.3118 16.4272 13.9096 15.4005C14.1762 14.9438 14.5804 14.7141 15.1193 14.734C15.3522 14.7425 15.5571 14.7935 15.7452 14.8928L18.434 17.6326C17.6341 19.0564 16.837 20.483 16.0371 21.9068C15.0351 23.6908 14.0387 25.4776 13.0367 27.2616C11.8355 29.4001 10.6314 31.5358 9.42732 33.6743C9.2505 33.9891 9.15508 34.3209 9.21402 34.684C9.34313 35.5065 9.98024 36.0028 10.8868 36C12.6185 35.9943 14.3474 36 16.0792 35.9943C17.5583 35.9915 18.7202 35.3647 19.5089 34.1082C20.6204 32.3356 21.7178 30.5516 22.7815 28.7506C23.5449 27.4601 24.6451 26.7142 26.1018 26.5128C26.6238 26.4419 27.1599 26.4646 27.6904 26.4618C29.2762 26.4561 30.8591 26.4447 32.4421 26.4618C33.228 26.4703 33.7809 27.0857 33.8033 27.877C33.8146 28.3081 33.6462 28.6655 33.4413 29.02C32.5375 30.5743 31.631 32.1257 30.7328 33.6828C30.455 34.1678 30.3904 34.6783 30.6711 35.1888C30.9658 35.7277 31.4233 35.9971 32.0407 35.9943C33.0764 35.9886 34.1093 35.9943 35.1449 35.9943V35.9603C36.3153 35.9603 37.4913 36.0085 38.6589 35.9461C39.8629 35.8809 40.8144 35.2626 41.4852 34.2614C41.9651 33.5438 42.3805 32.778 42.8212 32.0321C43.4667 30.9345 44.1095 29.8397 44.7494 28.7392C45.1255 28.0926 45.0749 27.4176 44.6203 26.9156V26.9184ZM31.7236 23.4242C30.8451 23.4525 29.9666 23.4298 29.0881 23.4298C28.2293 23.4298 27.3676 23.4412 26.5088 23.4242C25.4731 23.4071 24.8388 22.4258 25.2373 21.453C25.358 21.1552 25.5264 20.8772 25.6836 20.5964C26.621 18.9146 27.5529 17.2298 28.5071 15.5565C29.1218 14.4815 30.5083 14.4305 31.1398 15.4856C32.0435 16.9944 32.9276 18.5175 33.75 20.0746C34.5752 21.6345 33.5058 23.3674 31.7236 23.4242Z" fill="black"/>
</svg>
