<svg width="227" height="227" viewBox="0 0 227 227" fill="none" xmlns="http://www.w3.org/2000/svg">
<path d="M97.0255 0.734506C69.4255 4.60117 43.2922 19.1345 25.2922 40.7345C17.0255 50.8678 6.22554 72.2012 3.15887 84.8678C-5.77446 122.068 4.4922 160.601 30.7589 188.335C52.4922 211.135 80.6255 223.401 111.559 223.401C121.292 223.401 141.692 220.601 143.292 219.001C143.426 218.735 139.559 209.535 134.626 198.468L125.692 178.335H113.026C81.4255 178.201 56.3589 160.201 47.4255 131.001C45.2922 123.668 44.7589 119.268 45.2922 108.201C45.6922 95.1345 46.0922 93.8012 51.2922 83.2678C72.0922 41.4012 125.026 31.9345 157.826 64.0678C171.692 77.8012 179.959 99.6678 177.826 117.401L177.026 124.335L197.026 133.268C207.959 138.335 217.426 141.935 218.226 141.535C222.759 138.735 223.426 98.4678 219.159 82.7345C210.226 50.3345 184.892 21.2678 154.359 8.73451C137.026 1.53451 114.226 -1.53216 97.0255 0.734506Z" fill="black"/>
<path d="M146.892 131.401C137.959 133.268 131.692 140.734 131.692 149.801C131.692 154.068 134.892 162.734 145.426 186.334C152.892 203.268 160.626 218.734 162.492 220.868C167.026 225.801 174.759 227.801 181.692 225.934C185.826 224.734 190.759 220.734 202.892 208.868C223.959 188.201 226.359 184.868 226.359 176.068C226.359 163.401 224.626 162.068 188.892 145.934C155.426 130.868 153.292 130.068 146.892 131.401Z" fill="black"/>
</svg>
