<svg width="112" height="112" viewBox="0 0 112 112" fill="none" xmlns="http://www.w3.org/2000/svg">
<path d="M48.0072 0.362981C34.351 2.27393 21.4205 9.45645 12.5143 20.1314C8.42406 25.1394 3.08033 35.6826 1.56298 41.9426C-2.85714 60.3272 2.2227 79.3708 15.2192 93.0769C25.9726 104.345 39.8927 110.407 55.1982 110.407C60.0141 110.407 70.1078 109.023 70.8995 108.233C70.9655 108.101 69.0523 103.554 66.6113 98.0849L62.1912 88.1348H55.9239C40.2885 88.0689 27.8858 79.1731 23.4657 64.7421C22.4101 61.1179 22.1462 58.9434 22.4101 53.4741C22.608 47.0165 22.8059 46.3575 25.3788 41.1518C35.6705 20.4609 61.8613 15.7823 78.0904 31.663C84.9515 38.4501 89.0418 49.2569 87.9862 58.0209L87.5904 61.4474L97.4862 65.8623C102.896 68.3663 107.58 70.1455 107.976 69.9478C110.219 68.564 110.549 48.6638 108.438 40.8882C104.017 24.8758 91.4827 10.5108 76.3752 4.31666C67.7988 0.758349 56.5176 -0.757229 48.0072 0.362981Z" fill="#D7303A"/>
<path d="M72.681 64.9398C68.2608 65.8624 65.1602 69.5525 65.1602 74.0333C65.1602 76.1419 66.7435 80.4251 71.9553 92.0885C75.6497 100.457 79.4761 108.101 80.3997 109.155C82.6427 111.593 86.4691 112.582 89.8996 111.659C91.9448 111.066 94.3857 109.089 100.389 103.225C110.813 93.011 112 91.3636 112 87.0146C112 80.7546 111.143 80.0956 93.4621 72.1224C76.9032 64.6762 75.8476 64.2809 72.681 64.9398Z" fill="#D7303A"/>
</svg>
