<svg width="24" height="24" viewBox="0 0 24 24" fill="none" xmlns="http://www.w3.org/2000/svg">
<path d="M11.5 5C14.328 5 15.743 5 16.621 5.879C17.5 6.757 17.5 8.172 17.5 11C17.5 19 21.5 19 21.5 19H7.239C6.911 19 6.747 19 6.375 18.903C6.003 18.806 5.944 18.773 5.825 18.707C4.686 18.07 2.5 16.174 2.5 11C2.5 8.172 2.5 6.757 3.379 5.879C4.257 5 5.672 5 8.5 5" stroke="#D7303A" stroke-width="1.5" stroke-linecap="round" stroke-linejoin="round"/>
<path d="M2.5 10V16C2.5 18.828 2.5 20.243 3.379 21.121C4.257 22 5.672 22 8.5 22H11.576C14.405 22 15.819 22 16.697 21.121C17.187 20.631 17.404 19.975 17.5 19M11.5 3.5V6.5C11.5 6.966 11.5 7.199 11.424 7.383C11.3223 7.62754 11.1277 7.82174 10.883 7.923C10.699 8 10.466 8 10 8C9.534 8 9.301 8 9.117 7.924C8.87246 7.82229 8.67826 7.62773 8.577 7.383C8.5 7.199 8.5 6.966 8.5 6.5V3.5C8.5 3.034 8.5 2.801 8.576 2.617C8.67771 2.37246 8.87227 2.17826 9.117 2.077C9.301 2 9.534 2 10 2C10.466 2 10.699 2 10.883 2.076C11.1275 2.17771 11.3217 2.37227 11.423 2.617C11.5 2.801 11.5 3.034 11.5 3.5Z" stroke="#D7303A" stroke-width="1.5" stroke-linecap="round" stroke-linejoin="round"/>
</svg>
