<svg width="18" height="17" viewBox="0 0 18 17" fill="none" xmlns="http://www.w3.org/2000/svg">
<path d="M12.3333 1H3.16667C2.72464 1 2.30072 1.17559 1.98816 1.48816C1.67559 1.80072 1.5 2.22464 1.5 2.66667V14.3333C1.5 14.7754 1.67559 15.1993 1.98816 15.5118C2.30072 15.8244 2.72464 16 3.16667 16H14.8333C15.2754 16 15.6993 15.8244 16.0118 15.5118C16.3244 15.1993 16.5 14.7754 16.5 14.3333V5.16667L12.3333 1Z" stroke="white" stroke-width="2" stroke-linecap="round" stroke-linejoin="round"/>
<path d="M11.5 1V4.33333C11.5 4.77536 11.6756 5.19928 11.9882 5.51184C12.3007 5.8244 12.7246 6 13.1667 6H16.5" stroke="white" stroke-width="2" stroke-linecap="round" stroke-linejoin="round"/>
</svg>
