<svg width="48" height="48" viewBox="0 0 48 48" fill="none" xmlns="http://www.w3.org/2000/svg">
<path d="M7.5 3C6.30653 3 5.16193 3.47411 4.31802 4.31802C3.47411 5.16193 3 6.30653 3 7.5V40.5C3 41.6935 3.47411 42.8381 4.31802 43.682C5.16193 44.5259 6.30653 45 7.5 45H25.758C26.9511 44.999 28.0949 44.5242 28.938 43.68L43.683 28.938C44.5261 28.0944 44.9997 26.9506 45 25.758V7.5C45 6.30653 44.5259 5.16193 43.682 4.31802C42.8381 3.47411 41.6935 3 40.5 3H7.5ZM6 7.5C6 7.10218 6.15804 6.72064 6.43934 6.43934C6.72064 6.15804 7.10218 6 7.5 6H40.5C40.8978 6 41.2794 6.15804 41.5607 6.43934C41.842 6.72064 42 7.10218 42 7.5V24H28.5C27.3065 24 26.1619 24.4741 25.318 25.318C24.4741 26.1619 24 27.3065 24 28.5V42H7.5C7.10218 42 6.72064 41.842 6.43934 41.5607C6.15804 41.2794 6 40.8978 6 40.5V7.5ZM27 41.379V28.5C27 28.1022 27.158 27.7206 27.4393 27.4393C27.7206 27.158 28.1022 27 28.5 27H41.379L27 41.379Z" fill="black"/>
</svg>
