<svg width="16" height="17" viewBox="0 0 16 17" fill="none" xmlns="http://www.w3.org/2000/svg">
<path d="M1.33333 4.33333C1.33333 2.76167 1.33333 1.97667 1.82167 1.48833C2.31 1 3.095 1 4.66667 1H11.3333C12.905 1 13.69 1 14.1783 1.48833C14.6667 1.97667 14.6667 2.76167 14.6667 4.33333V11C14.6667 13.3567 14.6667 14.5358 13.9342 15.2675C13.2025 16 12.0233 16 9.66667 16H6.33333C3.97667 16 2.7975 16 2.06583 15.2675C1.33333 14.5358 1.33333 13.3567 1.33333 11V4.33333Z" stroke="white" stroke-width="2"/>
<path d="M10.5 13.5V16M5.5 13.5V16M5.5 5.16666H10.5M5.5 8.49999H10.5" stroke="white" stroke-width="2" stroke-linecap="round"/>
</svg>
